<?xml version="1.0" encoding="utf-8"?>
<!-- Generator: Adobe Illustrator 15.1.0, SVG Export Plug-In . SVG Version: 6.00 Build 0)  -->
<!DOCTYPE svg PUBLIC "-//W3C//DTD SVG 1.1//EN" "http://www.w3.org/Graphics/SVG/1.1/DTD/svg11.dtd">
<svg version="1.1" id="Layer_1" xmlns="http://www.w3.org/2000/svg" xmlns:xlink="http://www.w3.org/1999/xlink" x="0px" y="0px"
	 width="430.5px" height="200px" viewBox="0 0 430.5 200" enable-background="new 0 0 430.5 200" xml:space="preserve">
<circle id="C1_1_" fill="#FFFFFF" cx="99.999" cy="100" r="79.422"/>
<circle fill="none" stroke="#000000" stroke-width="23" cx="100" cy="100" r="88.5"/>
<g>
	<defs>
		<polyline id="SVGID_1_" points="45,45 45,155 155,155 155,111.5 125,111.5 125,88.5 155,88.5 155,45 		"/>
	</defs>
	<clipPath id="SVGID_2_">
		<use xlink:href="#SVGID_1_"  overflow="visible"/>
	</clipPath>
	<circle clip-path="url(#SVGID_2_)" fill="none" stroke="#000000" stroke-width="23" cx="100" cy="100" r="42.5"/>
</g>
<g id="Layer_1_1_" xmlns:svg="http://www.w3.org/2000/svg">
	<circle id="C0" cx="330.714" cy="100.181" r="99.786"/>
	<circle id="C1" fill="#FFFFFF" cx="330.714" cy="100.181" r="79.422"/>
</g>
<g id="Layer_2">
	<path d="M379.089,51.35h-25.537v64.901c-0.023,12.782-10.369,23.131-23.152,23.152c-12.783-0.021-23.131-10.37-23.152-23.152
		v-4.128h36.176V86.588h-36.176V76.375h36.176V51.349h-61.71v64.902c0.006,26.895,21.792,48.679,48.688,48.689
		c26.895-0.011,48.678-21.794,48.688-48.688h0.002L379.089,51.35L379.089,51.35z"/>
</g>
</svg>
